<mxfile host="app.diagrams.net" agent="Mozilla/5.0 (X11; Linux x86_64; rv:133.0) Gecko/20100101 Firefox/133.0" version="26.0.2">
  <diagram id="C5RBs43oDa-KdzZeNtuy" name="Page-1">
    <mxGraphModel dx="1434" dy="760" grid="1" gridSize="10" guides="1" tooltips="1" connect="1" arrows="1" fold="1" page="1" pageScale="1" pageWidth="827" pageHeight="1169" math="0" shadow="0">
      <root>
        <mxCell id="WIyWlLk6GJQsqaUBKTNV-0" />
        <mxCell id="WIyWlLk6GJQsqaUBKTNV-1" parent="WIyWlLk6GJQsqaUBKTNV-0" />
        <mxCell id="3C_1CBvjqrhutfCouf-g-36" style="edgeStyle=orthogonalEdgeStyle;rounded=0;orthogonalLoop=1;jettySize=auto;html=1;endArrow=none;endFill=0;" edge="1" parent="WIyWlLk6GJQsqaUBKTNV-1" source="3C_1CBvjqrhutfCouf-g-0" target="3C_1CBvjqrhutfCouf-g-4">
          <mxGeometry relative="1" as="geometry" />
        </mxCell>
        <mxCell id="3C_1CBvjqrhutfCouf-g-38" value="&lt;div&gt;learningUnitsTaughtBy&lt;/div&gt;&lt;div align=&quot;right&quot;&gt;0..*&lt;br&gt;&lt;/div&gt;" style="edgeLabel;html=1;align=center;verticalAlign=middle;resizable=0;points=[];" vertex="1" connectable="0" parent="3C_1CBvjqrhutfCouf-g-36">
          <mxGeometry x="-0.7161" y="-5" relative="1" as="geometry">
            <mxPoint x="-70" as="offset" />
          </mxGeometry>
        </mxCell>
        <mxCell id="3C_1CBvjqrhutfCouf-g-40" style="edgeStyle=orthogonalEdgeStyle;rounded=0;orthogonalLoop=1;jettySize=auto;html=1;exitX=0.75;exitY=0;exitDx=0;exitDy=0;entryX=0.786;entryY=1.038;entryDx=0;entryDy=0;entryPerimeter=0;endArrow=none;endFill=0;" edge="1" parent="WIyWlLk6GJQsqaUBKTNV-1" source="3C_1CBvjqrhutfCouf-g-0" target="3C_1CBvjqrhutfCouf-g-7">
          <mxGeometry relative="1" as="geometry">
            <Array as="points">
              <mxPoint x="440" y="250" />
              <mxPoint x="480" y="250" />
            </Array>
          </mxGeometry>
        </mxCell>
        <mxCell id="3C_1CBvjqrhutfCouf-g-0" value="LearningUnit" style="swimlane;fontStyle=0;childLayout=stackLayout;horizontal=1;startSize=26;fillColor=none;horizontalStack=0;resizeParent=1;resizeParentMax=0;resizeLast=0;collapsible=1;marginBottom=0;whiteSpace=wrap;html=1;" vertex="1" parent="WIyWlLk6GJQsqaUBKTNV-1">
          <mxGeometry x="335" y="290" width="140" height="52" as="geometry" />
        </mxCell>
        <mxCell id="3C_1CBvjqrhutfCouf-g-3" value="+ field: type" style="text;strokeColor=none;fillColor=none;align=left;verticalAlign=top;spacingLeft=4;spacingRight=4;overflow=hidden;rotatable=0;points=[[0,0.5],[1,0.5]];portConstraint=eastwest;whiteSpace=wrap;html=1;" vertex="1" parent="3C_1CBvjqrhutfCouf-g-0">
          <mxGeometry y="26" width="140" height="26" as="geometry" />
        </mxCell>
        <mxCell id="3C_1CBvjqrhutfCouf-g-4" value="Competency" style="swimlane;fontStyle=0;childLayout=stackLayout;horizontal=1;startSize=26;fillColor=none;horizontalStack=0;resizeParent=1;resizeParentMax=0;resizeLast=0;collapsible=1;marginBottom=0;whiteSpace=wrap;html=1;" vertex="1" parent="WIyWlLk6GJQsqaUBKTNV-1">
          <mxGeometry x="370" y="110" width="140" height="52" as="geometry" />
        </mxCell>
        <mxCell id="3C_1CBvjqrhutfCouf-g-7" value="+ field: type" style="text;strokeColor=none;fillColor=none;align=left;verticalAlign=top;spacingLeft=4;spacingRight=4;overflow=hidden;rotatable=0;points=[[0,0.5],[1,0.5]];portConstraint=eastwest;whiteSpace=wrap;html=1;" vertex="1" parent="3C_1CBvjqrhutfCouf-g-4">
          <mxGeometry y="26" width="140" height="26" as="geometry" />
        </mxCell>
        <mxCell id="3C_1CBvjqrhutfCouf-g-44" style="edgeStyle=orthogonalEdgeStyle;rounded=0;orthogonalLoop=1;jettySize=auto;html=1;endArrow=none;endFill=0;" edge="1" parent="WIyWlLk6GJQsqaUBKTNV-1" source="3C_1CBvjqrhutfCouf-g-8" target="3C_1CBvjqrhutfCouf-g-12">
          <mxGeometry relative="1" as="geometry" />
        </mxCell>
        <mxCell id="3C_1CBvjqrhutfCouf-g-8" value="LearningMaterial" style="swimlane;fontStyle=0;childLayout=stackLayout;horizontal=1;startSize=26;fillColor=none;horizontalStack=0;resizeParent=1;resizeParentMax=0;resizeLast=0;collapsible=1;marginBottom=0;whiteSpace=wrap;html=1;" vertex="1" parent="WIyWlLk6GJQsqaUBKTNV-1">
          <mxGeometry x="670" y="303" width="140" height="52" as="geometry" />
        </mxCell>
        <mxCell id="3C_1CBvjqrhutfCouf-g-11" value="+ field: type" style="text;strokeColor=none;fillColor=none;align=left;verticalAlign=top;spacingLeft=4;spacingRight=4;overflow=hidden;rotatable=0;points=[[0,0.5],[1,0.5]];portConstraint=eastwest;whiteSpace=wrap;html=1;" vertex="1" parent="3C_1CBvjqrhutfCouf-g-8">
          <mxGeometry y="26" width="140" height="26" as="geometry" />
        </mxCell>
        <mxCell id="3C_1CBvjqrhutfCouf-g-12" value="Material" style="swimlane;fontStyle=0;childLayout=stackLayout;horizontal=1;startSize=26;fillColor=none;horizontalStack=0;resizeParent=1;resizeParentMax=0;resizeLast=0;collapsible=1;marginBottom=0;whiteSpace=wrap;html=1;" vertex="1" parent="WIyWlLk6GJQsqaUBKTNV-1">
          <mxGeometry x="670" y="430" width="140" height="52" as="geometry" />
        </mxCell>
        <mxCell id="3C_1CBvjqrhutfCouf-g-15" value="+ field: type" style="text;strokeColor=none;fillColor=none;align=left;verticalAlign=top;spacingLeft=4;spacingRight=4;overflow=hidden;rotatable=0;points=[[0,0.5],[1,0.5]];portConstraint=eastwest;whiteSpace=wrap;html=1;" vertex="1" parent="3C_1CBvjqrhutfCouf-g-12">
          <mxGeometry y="26" width="140" height="26" as="geometry" />
        </mxCell>
        <mxCell id="3C_1CBvjqrhutfCouf-g-52" style="edgeStyle=orthogonalEdgeStyle;rounded=0;orthogonalLoop=1;jettySize=auto;html=1;endArrow=none;endFill=0;" edge="1" parent="WIyWlLk6GJQsqaUBKTNV-1" source="3C_1CBvjqrhutfCouf-g-16" target="3C_1CBvjqrhutfCouf-g-4">
          <mxGeometry relative="1" as="geometry">
            <Array as="points">
              <mxPoint x="130" y="130" />
            </Array>
          </mxGeometry>
        </mxCell>
        <mxCell id="3C_1CBvjqrhutfCouf-g-55" style="edgeStyle=orthogonalEdgeStyle;rounded=0;orthogonalLoop=1;jettySize=auto;html=1;endArrow=none;endFill=0;" edge="1" parent="WIyWlLk6GJQsqaUBKTNV-1" source="3C_1CBvjqrhutfCouf-g-16" target="3C_1CBvjqrhutfCouf-g-20">
          <mxGeometry relative="1" as="geometry">
            <Array as="points">
              <mxPoint x="100" y="290" />
              <mxPoint x="100" y="290" />
            </Array>
          </mxGeometry>
        </mxCell>
        <mxCell id="3C_1CBvjqrhutfCouf-g-16" value="CourseOffering" style="swimlane;fontStyle=0;childLayout=stackLayout;horizontal=1;startSize=26;fillColor=none;horizontalStack=0;resizeParent=1;resizeParentMax=0;resizeLast=0;collapsible=1;marginBottom=0;whiteSpace=wrap;html=1;" vertex="1" parent="WIyWlLk6GJQsqaUBKTNV-1">
          <mxGeometry x="60" y="200" width="140" height="52" as="geometry" />
        </mxCell>
        <mxCell id="3C_1CBvjqrhutfCouf-g-19" value="+ field: type" style="text;strokeColor=none;fillColor=none;align=left;verticalAlign=top;spacingLeft=4;spacingRight=4;overflow=hidden;rotatable=0;points=[[0,0.5],[1,0.5]];portConstraint=eastwest;whiteSpace=wrap;html=1;" vertex="1" parent="3C_1CBvjqrhutfCouf-g-16">
          <mxGeometry y="26" width="140" height="26" as="geometry" />
        </mxCell>
        <mxCell id="3C_1CBvjqrhutfCouf-g-20" value="Module" style="swimlane;fontStyle=0;childLayout=stackLayout;horizontal=1;startSize=26;fillColor=none;horizontalStack=0;resizeParent=1;resizeParentMax=0;resizeLast=0;collapsible=1;marginBottom=0;whiteSpace=wrap;html=1;" vertex="1" parent="WIyWlLk6GJQsqaUBKTNV-1">
          <mxGeometry x="30" y="420" width="140" height="52" as="geometry" />
        </mxCell>
        <mxCell id="3C_1CBvjqrhutfCouf-g-23" value="+ field: type" style="text;strokeColor=none;fillColor=none;align=left;verticalAlign=top;spacingLeft=4;spacingRight=4;overflow=hidden;rotatable=0;points=[[0,0.5],[1,0.5]];portConstraint=eastwest;whiteSpace=wrap;html=1;" vertex="1" parent="3C_1CBvjqrhutfCouf-g-20">
          <mxGeometry y="26" width="140" height="26" as="geometry" />
        </mxCell>
        <mxCell id="3C_1CBvjqrhutfCouf-g-58" style="edgeStyle=orthogonalEdgeStyle;rounded=0;orthogonalLoop=1;jettySize=auto;html=1;endArrow=none;endFill=0;" edge="1" parent="WIyWlLk6GJQsqaUBKTNV-1" source="3C_1CBvjqrhutfCouf-g-24" target="3C_1CBvjqrhutfCouf-g-16">
          <mxGeometry relative="1" as="geometry">
            <Array as="points">
              <mxPoint x="280" y="390" />
              <mxPoint x="130" y="390" />
            </Array>
          </mxGeometry>
        </mxCell>
        <mxCell id="3C_1CBvjqrhutfCouf-g-61" style="edgeStyle=orthogonalEdgeStyle;rounded=0;orthogonalLoop=1;jettySize=auto;html=1;endArrow=none;endFill=0;" edge="1" parent="WIyWlLk6GJQsqaUBKTNV-1" source="3C_1CBvjqrhutfCouf-g-24" target="3C_1CBvjqrhutfCouf-g-0">
          <mxGeometry relative="1" as="geometry">
            <Array as="points">
              <mxPoint x="360" y="381" />
              <mxPoint x="405" y="381" />
            </Array>
          </mxGeometry>
        </mxCell>
        <mxCell id="3C_1CBvjqrhutfCouf-g-64" style="edgeStyle=orthogonalEdgeStyle;rounded=0;orthogonalLoop=1;jettySize=auto;html=1;endArrow=none;endFill=0;" edge="1" parent="WIyWlLk6GJQsqaUBKTNV-1" source="3C_1CBvjqrhutfCouf-g-24" target="3C_1CBvjqrhutfCouf-g-8">
          <mxGeometry relative="1" as="geometry">
            <Array as="points">
              <mxPoint x="640" y="430" />
              <mxPoint x="640" y="340" />
            </Array>
          </mxGeometry>
        </mxCell>
        <mxCell id="3C_1CBvjqrhutfCouf-g-24" value="User" style="swimlane;fontStyle=0;childLayout=stackLayout;horizontal=1;startSize=26;fillColor=none;horizontalStack=0;resizeParent=1;resizeParentMax=0;resizeLast=0;collapsible=1;marginBottom=0;whiteSpace=wrap;html=1;" vertex="1" parent="WIyWlLk6GJQsqaUBKTNV-1">
          <mxGeometry x="250" y="420" width="140" height="52" as="geometry" />
        </mxCell>
        <mxCell id="3C_1CBvjqrhutfCouf-g-39" value="&lt;div&gt;teaches&lt;br&gt;&lt;/div&gt;&lt;div align=&quot;right&quot;&gt;0..*&lt;br&gt;&lt;/div&gt;" style="edgeLabel;html=1;align=center;verticalAlign=middle;resizable=0;points=[];" vertex="1" connectable="0" parent="WIyWlLk6GJQsqaUBKTNV-1">
          <mxGeometry x="414" y="190" as="geometry">
            <mxPoint as="offset" />
          </mxGeometry>
        </mxCell>
        <mxCell id="3C_1CBvjqrhutfCouf-g-41" value="&lt;div align=&quot;left&quot;&gt;learningUnitsRequiredBy&lt;/div&gt;&lt;div align=&quot;left&quot;&gt;0..*&lt;br&gt;&lt;/div&gt;" style="edgeLabel;html=1;align=left;verticalAlign=middle;resizable=0;points=[];" vertex="1" connectable="0" parent="WIyWlLk6GJQsqaUBKTNV-1">
          <mxGeometry x="440" y="270" as="geometry" />
        </mxCell>
        <mxCell id="3C_1CBvjqrhutfCouf-g-42" value="&lt;div align=&quot;left&quot;&gt;competencyRequired&lt;/div&gt;&lt;div align=&quot;left&quot;&gt;0..*&lt;br&gt;&lt;/div&gt;" style="edgeLabel;html=1;align=left;verticalAlign=middle;resizable=0;points=[];" vertex="1" connectable="0" parent="WIyWlLk6GJQsqaUBKTNV-1">
          <mxGeometry x="480" y="190" as="geometry" />
        </mxCell>
        <mxCell id="3C_1CBvjqrhutfCouf-g-43" style="edgeStyle=orthogonalEdgeStyle;rounded=0;orthogonalLoop=1;jettySize=auto;html=1;endArrow=none;endFill=0;" edge="1" parent="WIyWlLk6GJQsqaUBKTNV-1" source="3C_1CBvjqrhutfCouf-g-3" target="3C_1CBvjqrhutfCouf-g-8">
          <mxGeometry relative="1" as="geometry" />
        </mxCell>
        <mxCell id="3C_1CBvjqrhutfCouf-g-45" value="&lt;div&gt;learningMaterial&lt;br&gt;&lt;/div&gt;&lt;div align=&quot;right&quot;&gt;0..1&lt;br&gt;&lt;/div&gt;" style="edgeLabel;html=1;align=center;verticalAlign=middle;resizable=0;points=[];" vertex="1" connectable="0" parent="WIyWlLk6GJQsqaUBKTNV-1">
          <mxGeometry x="690" y="370" as="geometry" />
        </mxCell>
        <mxCell id="3C_1CBvjqrhutfCouf-g-46" value="&lt;div&gt;material&lt;br&gt;&lt;/div&gt;&lt;div align=&quot;right&quot;&gt;0..1&lt;br&gt;&lt;/div&gt;" style="edgeLabel;html=1;align=center;verticalAlign=middle;resizable=0;points=[];" vertex="1" connectable="0" parent="WIyWlLk6GJQsqaUBKTNV-1">
          <mxGeometry x="710" y="410" as="geometry" />
        </mxCell>
        <mxCell id="3C_1CBvjqrhutfCouf-g-47" value="&lt;div align=&quot;left&quot;&gt;learningUnits&lt;/div&gt;&lt;div align=&quot;left&quot;&gt;0..*&lt;br&gt;&lt;/div&gt;" style="edgeLabel;html=1;align=left;verticalAlign=middle;resizable=0;points=[];" vertex="1" connectable="0" parent="WIyWlLk6GJQsqaUBKTNV-1">
          <mxGeometry x="480" y="310" as="geometry" />
        </mxCell>
        <mxCell id="3C_1CBvjqrhutfCouf-g-48" value="&lt;div&gt;materials&lt;br&gt;&lt;/div&gt;&lt;div align=&quot;right&quot;&gt;0..*&lt;br&gt;&lt;/div&gt;" style="edgeLabel;html=1;align=center;verticalAlign=middle;resizable=0;points=[];" vertex="1" connectable="0" parent="WIyWlLk6GJQsqaUBKTNV-1">
          <mxGeometry x="640" y="310" as="geometry">
            <mxPoint as="offset" />
          </mxGeometry>
        </mxCell>
        <mxCell id="3C_1CBvjqrhutfCouf-g-49" style="edgeStyle=orthogonalEdgeStyle;rounded=0;orthogonalLoop=1;jettySize=auto;html=1;endArrow=none;endFill=0;" edge="1" parent="WIyWlLk6GJQsqaUBKTNV-1" source="3C_1CBvjqrhutfCouf-g-19" target="3C_1CBvjqrhutfCouf-g-0">
          <mxGeometry relative="1" as="geometry">
            <Array as="points">
              <mxPoint x="190" y="300" />
            </Array>
          </mxGeometry>
        </mxCell>
        <mxCell id="3C_1CBvjqrhutfCouf-g-50" value="&lt;div&gt;learningUnits&lt;/div&gt;&lt;div&gt;0..*&lt;br&gt;&lt;/div&gt;" style="edgeLabel;html=1;align=right;verticalAlign=middle;resizable=0;points=[];" vertex="1" connectable="0" parent="WIyWlLk6GJQsqaUBKTNV-1">
          <mxGeometry x="330" y="316" as="geometry" />
        </mxCell>
        <mxCell id="3C_1CBvjqrhutfCouf-g-51" value="&lt;div&gt;offerings&lt;br&gt;&lt;/div&gt;&lt;div&gt;0..*&lt;br&gt;&lt;/div&gt;" style="edgeLabel;html=1;align=left;verticalAlign=middle;resizable=0;points=[];" vertex="1" connectable="0" parent="WIyWlLk6GJQsqaUBKTNV-1">
          <mxGeometry x="200" y="270" as="geometry" />
        </mxCell>
        <mxCell id="3C_1CBvjqrhutfCouf-g-53" value="&lt;div&gt;offerings&lt;br&gt;&lt;/div&gt;&lt;div&gt;0..*&lt;br&gt;&lt;/div&gt;" style="edgeLabel;html=1;align=left;verticalAlign=middle;resizable=0;points=[];" vertex="1" connectable="0" parent="WIyWlLk6GJQsqaUBKTNV-1">
          <mxGeometry x="130" y="180" as="geometry" />
        </mxCell>
        <mxCell id="3C_1CBvjqrhutfCouf-g-54" value="&lt;div&gt;competencies&lt;br&gt;&lt;/div&gt;&lt;div&gt;0..*&lt;br&gt;&lt;/div&gt;" style="edgeLabel;html=1;align=right;verticalAlign=middle;resizable=0;points=[];" vertex="1" connectable="0" parent="WIyWlLk6GJQsqaUBKTNV-1">
          <mxGeometry x="360" y="150" as="geometry" />
        </mxCell>
        <mxCell id="3C_1CBvjqrhutfCouf-g-56" value="&lt;div&gt;offerings&lt;br&gt;&lt;/div&gt;&lt;div&gt;0..*&lt;br&gt;&lt;/div&gt;" style="edgeLabel;html=1;align=right;verticalAlign=middle;resizable=0;points=[];" vertex="1" connectable="0" parent="WIyWlLk6GJQsqaUBKTNV-1">
          <mxGeometry x="100" y="270" as="geometry" />
        </mxCell>
        <mxCell id="3C_1CBvjqrhutfCouf-g-57" value="&lt;div&gt;module&lt;br&gt;&lt;/div&gt;&lt;div&gt;1&lt;br&gt;&lt;/div&gt;" style="edgeLabel;html=1;align=right;verticalAlign=middle;resizable=0;points=[];" vertex="1" connectable="0" parent="WIyWlLk6GJQsqaUBKTNV-1">
          <mxGeometry x="100" y="400" as="geometry" />
        </mxCell>
        <mxCell id="3C_1CBvjqrhutfCouf-g-59" value="&lt;div&gt;coordinator&lt;br&gt;&lt;/div&gt;&lt;div&gt;1&lt;br&gt;&lt;/div&gt;" style="edgeLabel;html=1;align=left;verticalAlign=middle;resizable=0;points=[];" vertex="1" connectable="0" parent="WIyWlLk6GJQsqaUBKTNV-1">
          <mxGeometry x="280" y="400" as="geometry" />
        </mxCell>
        <mxCell id="3C_1CBvjqrhutfCouf-g-60" value="&lt;div&gt;coordinates&lt;br&gt;&lt;/div&gt;&lt;div&gt;0..1&lt;br&gt;&lt;/div&gt;" style="edgeLabel;html=1;align=left;verticalAlign=middle;resizable=0;points=[];" vertex="1" connectable="0" parent="WIyWlLk6GJQsqaUBKTNV-1">
          <mxGeometry x="130" y="270" as="geometry" />
        </mxCell>
        <mxCell id="3C_1CBvjqrhutfCouf-g-62" value="&lt;div&gt;createdBy&lt;br&gt;&lt;/div&gt;&lt;div&gt;0..1&lt;br&gt;&lt;/div&gt;" style="edgeLabel;html=1;align=left;verticalAlign=middle;resizable=0;points=[];" vertex="1" connectable="0" parent="WIyWlLk6GJQsqaUBKTNV-1">
          <mxGeometry x="360" y="400" as="geometry" />
        </mxCell>
        <mxCell id="3C_1CBvjqrhutfCouf-g-63" value="&lt;div align=&quot;left&quot;&gt;learningUnitsCreated&lt;/div&gt;&lt;div align=&quot;left&quot;&gt;0..*&lt;br&gt;&lt;/div&gt;" style="edgeLabel;html=1;align=left;verticalAlign=middle;resizable=0;points=[];" vertex="1" connectable="0" parent="WIyWlLk6GJQsqaUBKTNV-1">
          <mxGeometry x="414" y="360" as="geometry" />
        </mxCell>
        <mxCell id="3C_1CBvjqrhutfCouf-g-65" value="&lt;div&gt;LearningMaterials&lt;/div&gt;&lt;div&gt;0..*&lt;br&gt;&lt;/div&gt;" style="edgeLabel;html=1;align=right;verticalAlign=middle;resizable=0;points=[];" vertex="1" connectable="0" parent="WIyWlLk6GJQsqaUBKTNV-1">
          <mxGeometry x="640" y="355" as="geometry" />
        </mxCell>
        <mxCell id="3C_1CBvjqrhutfCouf-g-66" value="&lt;div&gt;createdBy&lt;br&gt;&lt;/div&gt;&lt;div&gt;1&lt;br&gt;&lt;/div&gt;" style="edgeLabel;html=1;align=left;verticalAlign=middle;resizable=0;points=[];" vertex="1" connectable="0" parent="WIyWlLk6GJQsqaUBKTNV-1">
          <mxGeometry x="390" y="446" as="geometry" />
        </mxCell>
      </root>
    </mxGraphModel>
  </diagram>
</mxfile>
